<svg width="82" height="21" viewBox="0 0 82 21" fill="none" xmlns="http://www.w3.org/2000/svg">
<path fill-rule="evenodd" clip-rule="evenodd" d="M12 2.5H8V6.5H4H0V10.5V14.5V18.5H4H8V14.5H12H16V10.5V6.5V2.5H12ZM4 14.5H8V10.5H12V6.5H8V10.5H4V14.5Z" fill="white"/>
<path d="M30.52 8.528C30.52 8.13333 30.4453 7.808 30.296 7.552C30.152 7.29067 29.9307 7.09867 29.632 6.976C29.3387 6.848 28.968 6.784 28.52 6.784H27.624V10.408H28.656C29.0453 10.408 29.3787 10.3413 29.656 10.208C29.9333 10.0747 30.1467 9.86933 30.296 9.592C30.4453 9.31467 30.52 8.96 30.52 8.528ZM33.224 8.52C33.224 9.37867 33.04 10.088 32.672 10.648C32.304 11.208 31.7893 11.6267 31.128 11.904C30.4667 12.176 29.6987 12.312 28.824 12.312H27.624V16H25V4.912H28.488C29.992 4.912 31.1573 5.21067 31.984 5.808C32.8107 6.40533 33.224 7.30933 33.224 8.52ZM34.7938 16V14.304H35.9138V9.184H34.7938V7.504H37.8418L38.3058 9.416C38.6098 8.68533 38.9964 8.14133 39.4658 7.784C39.9404 7.42667 40.5191 7.248 41.2018 7.248C41.4898 7.248 41.7458 7.272 41.9698 7.32C42.1938 7.36267 42.4044 7.424 42.6018 7.504L41.8338 9.592C41.6791 9.54933 41.5244 9.51733 41.3698 9.496C41.2151 9.47467 41.0444 9.464 40.8578 9.464C40.3031 9.464 39.8151 9.69067 39.3938 10.144C38.9778 10.5973 38.6604 11.1733 38.4418 11.872V14.304H40.1218V16H34.7938ZM40.5458 11.056V8.576L40.9218 7.504H42.6018L42.1298 11.056H40.5458ZM51.4595 13.552C51.4595 13.872 51.5022 14.104 51.5875 14.248C51.6782 14.392 51.8222 14.5013 52.0195 14.576L51.4995 16.24C50.9982 16.192 50.5742 16.0827 50.2275 15.912C49.8862 15.736 49.6168 15.472 49.4195 15.12C49.0942 15.5093 48.6782 15.8 48.1715 15.992C47.6648 16.1787 47.1475 16.272 46.6195 16.272C45.7448 16.272 45.0462 16.024 44.5235 15.528C44.0062 15.0267 43.7475 14.384 43.7475 13.6C43.7475 12.6773 44.1075 11.9653 44.8275 11.464C45.5528 10.9627 46.5715 10.712 47.8835 10.712H49.0275V10.392C49.0275 9.94933 48.8835 9.62133 48.5955 9.408C48.3128 9.19467 47.8968 9.088 47.3475 9.088C47.0755 9.088 46.7262 9.128 46.2995 9.208C45.8728 9.28267 45.4462 9.392 45.0195 9.536L44.4355 7.856C44.9848 7.648 45.5555 7.49067 46.1475 7.384C46.7448 7.27733 47.2782 7.224 47.7475 7.224C49.0115 7.224 49.9448 7.48267 50.5475 8C51.1555 8.512 51.4595 9.25333 51.4595 10.224V13.552ZM47.4915 14.464C47.7635 14.464 48.0488 14.384 48.3475 14.224C48.6462 14.0587 48.8728 13.8267 49.0275 13.528V12.152H48.4035C47.6995 12.152 47.1822 12.2613 46.8515 12.48C46.5208 12.6933 46.3555 13.008 46.3555 13.424C46.3555 13.7493 46.4542 14.0053 46.6515 14.192C46.8542 14.3733 47.1342 14.464 47.4915 14.464ZM61.5493 15.504C61.2186 15.7173 60.8186 15.8987 60.3493 16.048C59.8799 16.1973 59.3519 16.272 58.7653 16.272C57.6559 16.272 56.8319 15.9893 56.2933 15.424C55.7546 14.8533 55.4853 14.08 55.4853 13.104V9.248H53.7013V7.504H55.4853V5.664L58.0133 5.36V7.504H60.7493L60.5013 9.248H58.0133V13.104C58.0133 13.5253 58.1093 13.8267 58.3013 14.008C58.4933 14.1893 58.7999 14.28 59.2213 14.28C59.5199 14.28 59.7919 14.2453 60.0373 14.176C60.2879 14.1013 60.5119 14.008 60.7093 13.896L61.5493 15.504ZM68.687 7.504V14.272H70.847V16H63.751V14.272H66.159V9.232H63.831V7.504H68.687ZM67.159 3.056C67.5963 3.056 67.9537 3.192 68.231 3.464C68.5083 3.736 68.647 4.07467 68.647 4.48C68.647 4.88533 68.5083 5.22667 68.231 5.504C67.9537 5.776 67.5963 5.912 67.159 5.912C66.7163 5.912 66.3537 5.776 66.071 5.504C65.7937 5.22667 65.655 4.88533 65.655 4.48C65.655 4.07467 65.7937 3.736 66.071 3.464C66.3537 3.192 66.7163 3.056 67.159 3.056ZM81.1528 7.504L78.3608 11.264L81.3848 16H78.5048L75.7128 11.344L78.5048 7.504H81.1528ZM75.6168 3.864V16H73.0888V4.128L75.6168 3.864Z" fill="white"/>
</svg>
